<svg viewBox="0 0 434 382" xmlns="http://www.w3.org/2000/svg" fill-rule="evenodd" clip-rule="evenodd" stroke-linejoin="round" stroke-miterlimit="1.4142">
  <path fill="none" d="M.06.089h433v380H.06z"/>
  <clipPath id="a">
    <path d="M.06.089h433v380H.06z"/>
  </clipPath>
  <g clip-path="url(#a)">
    <ellipse cx="216.534" cy="165.355" rx="77.226" ry="36.946" fill="#6900ff" fill-opacity=".1507"/>
    <path d="M148.972 105.54c.235-17.377 30.418-31.451 67.562-31.451 37.289 0 67.564 14.184 67.564 31.656v54.881c0 17.471-30.275 31.656-67.564 31.656-37.289 0-67.563-14.185-67.563-31.656v-54.881l.001-.205z" fill="#6900ff"/>
    <ellipse cx="216.534" cy="105.745" rx="67.563" ry="31.656" fill="#fff" fill-opacity=".19"/>
    <path d="M215.268 91.34l6.243 9.254h20.204l-16.345 5.719 6.243 9.253-16.345-5.719-16.345 5.719 6.243-9.253-16.345-5.719h20.204l6.243-9.254z" fill="#fff"/>
    <g fill-rule="nonzero">
      <path d="M48.146 303.325v-38.928h7.926v32.315h19.707v6.613H48.146zm33.23-32.288v-6.961H88.9v6.961h-7.524zm0 32.288v-28.433H88.9v28.433h-7.524zm12.585-8.112l7.551-1.151c.321 1.463.972 2.574 1.954 3.333.982.758 2.357 1.138 4.124 1.138 1.946 0 3.409-.357 4.391-1.071.661-.5.991-1.169.991-2.008 0-.571-.179-1.044-.536-1.419-.375-.357-1.214-.687-2.517-.991-6.069-1.338-9.916-2.561-11.54-3.668-2.25-1.535-3.374-3.667-3.374-6.398 0-2.463.973-4.534 2.918-6.212 1.946-1.677 4.963-2.516 9.051-2.516 3.891 0 6.783.633 8.675 1.901 1.893 1.267 3.196 3.141 3.91 5.622l-7.096 1.312c-.303-1.107-.879-1.955-1.727-2.544-.848-.589-2.057-.883-3.628-.883-1.982 0-3.401.277-4.258.83-.571.392-.857.901-.857 1.526 0 .535.25.99.75 1.365.679.5 3.022 1.205 7.029 2.115 4.008.911 6.806 2.026 8.394 3.347 1.571 1.339 2.357 3.204 2.357 5.595 0 2.606-1.089 4.846-3.267 6.72-2.178 1.874-5.4 2.811-9.666 2.811-3.874 0-6.94-.785-9.198-2.356-2.258-1.57-3.735-3.703-4.431-6.398zm32.881 8.112v-39.249h7.524v20.829l8.81-10.013h9.264l-9.72 10.388 10.416 18.045h-8.113l-7.149-12.771-3.508 3.668v9.103h-7.524zm46.082-39.249h15.691c3.106 0 5.422.13 6.949.388 1.526.259 2.892.799 4.096 1.62 1.205.821 2.21 1.914 3.013 3.28.803 1.365 1.205 2.896 1.205 4.591 0 1.839-.496 3.525-1.486 5.06-.991 1.535-2.334 2.687-4.03 3.454 2.392.696 4.23 1.883 5.516 3.561 1.285 1.678 1.928 3.65 1.928 5.917 0 1.784-.415 3.52-1.245 5.207-.831 1.687-1.964 3.034-3.401 4.043-1.437 1.008-3.209 1.628-5.315 1.86-1.321.143-4.508.232-9.559.268h-13.362v-39.249zm7.926 6.533v9.076h5.195c3.088 0 5.007-.045 5.757-.134 1.356-.161 2.423-.629 3.199-1.406.777-.776 1.165-1.798 1.165-3.065 0-1.214-.335-2.2-1.004-2.959-.669-.758-1.665-1.218-2.986-1.378-.785-.09-3.043-.134-6.774-.134h-4.552zm0 15.608v10.495h7.337c2.856 0 4.668-.08 5.435-.241 1.179-.214 2.138-.736 2.879-1.566.741-.83 1.111-1.941 1.111-3.333 0-1.178-.286-2.178-.857-2.999-.571-.821-1.397-1.419-2.477-1.794-1.08-.374-3.423-.562-7.028-.562h-6.4zm50.313 17.108v-4.257c-1.035 1.517-2.397 2.713-4.083 3.588-1.687.874-3.468 1.311-5.342 1.311-1.91 0-3.624-.419-5.141-1.258-1.518-.839-2.616-2.017-3.294-3.534-.678-1.517-1.017-3.614-1.017-6.291v-17.992h7.524v13.065c0 3.998.138 6.448.415 7.35.276.901.781 1.615 1.513 2.141.732.527 1.66.79 2.784.79 1.286 0 2.437-.352 3.455-1.057 1.017-.705 1.713-1.58 2.088-2.624s.562-3.601.562-7.67v-11.995h7.525v28.433h-6.989zm27.821-28.433v5.997h-5.141v11.459c0 2.32.049 3.672.147 4.056.098.384.321.701.669.951.348.25.772.374 1.272.374.696 0 1.705-.241 3.026-.722l.642 5.836c-1.749.75-3.73 1.124-5.944 1.124-1.357 0-2.579-.227-3.668-.682-1.089-.455-1.888-1.044-2.397-1.767-.509-.723-.861-1.7-1.057-2.932-.161-.874-.241-2.641-.241-5.301v-12.396h-3.455v-5.997h3.455v-5.649l7.551-4.39v10.039h5.141zm18.261 0v5.997h-5.141v11.459c0 2.32.049 3.672.147 4.056.099.384.322.701.67.951.348.25.772.374 1.272.374.696 0 1.704-.241 3.025-.722l.643 5.836c-1.749.75-3.731 1.124-5.944 1.124-1.357 0-2.58-.227-3.669-.682-1.089-.455-1.887-1.044-2.396-1.767-.509-.723-.862-1.7-1.058-2.932-.161-.874-.241-2.641-.241-5.301v-12.396h-3.454v-5.997h3.454v-5.649l7.551-4.39v10.039h5.141zm3.481 13.815c0-2.499.616-4.917 1.848-7.255 1.231-2.339 2.976-4.123 5.234-5.355 2.259-1.231 4.78-1.847 7.565-1.847 4.302 0 7.827 1.396 10.576 4.19 2.749 2.793 4.124 6.323 4.124 10.588 0 4.302-1.388 7.867-4.164 10.696-2.776 2.829-6.27 4.243-10.483 4.243-2.606 0-5.092-.589-7.457-1.767s-4.164-2.904-5.395-5.18c-1.232-2.276-1.848-5.047-1.848-8.313zm7.712.402c0 2.82.669 4.979 2.008 6.479 1.339 1.499 2.99 2.249 4.954 2.249 1.963 0 3.61-.75 4.94-2.249 1.33-1.5 1.995-3.677 1.995-6.533 0-2.784-.665-4.926-1.995-6.425-1.33-1.5-2.977-2.249-4.94-2.249-1.964 0-3.615.749-4.954 2.249-1.339 1.499-2.008 3.659-2.008 6.479zm53.392 14.216h-7.524v-14.511c0-3.07-.161-5.055-.482-5.957-.322-.901-.844-1.602-1.567-2.101-.723-.5-1.593-.75-2.61-.75-1.304 0-2.473.357-3.508 1.071-1.035.714-1.745 1.66-2.129 2.838-.384 1.178-.576 3.355-.576 6.532v12.878h-7.524v-28.433h6.989v4.177c2.481-3.213 5.605-4.819 9.372-4.819 1.66 0 3.177.299 4.552.897 1.374.598 2.414 1.361 3.119 2.289.705.928 1.196 1.981 1.473 3.159.276 1.178.415 2.865.415 5.06v17.67zm4.98-8.112l7.551-1.151c.322 1.463.973 2.574 1.955 3.333.982.758 2.356 1.138 4.123 1.138 1.946 0 3.41-.357 4.392-1.071.66-.5.991-1.169.991-2.008 0-.571-.179-1.044-.536-1.419-.375-.357-1.214-.687-2.517-.991-6.069-1.338-9.916-2.561-11.541-3.668-2.249-1.535-3.373-3.667-3.373-6.398 0-2.463.972-4.534 2.918-6.212 1.946-1.677 4.963-2.516 9.051-2.516 3.891 0 6.783.633 8.675 1.901 1.892 1.267 3.195 3.141 3.91 5.622l-7.096 1.312c-.304-1.107-.879-1.955-1.727-2.544-.848-.589-2.058-.883-3.629-.883-1.981 0-3.4.277-4.257.83-.571.392-.857.901-.857 1.526 0 .535.25.99.75 1.365.678.5 3.021 1.205 7.029 2.115 4.007.911 6.805 2.026 8.394 3.347 1.571 1.339 2.356 3.204 2.356 5.595 0 2.606-1.088 4.846-3.266 6.72-2.178 1.874-5.4 2.811-9.667 2.811-3.873 0-6.939-.785-9.197-2.356-2.258-1.57-3.736-3.703-4.432-6.398z" fill="#6900ff"/>
      <path d="M7.691 287.428v.161l15.424 5.434v7.283L.06 290.48v-6.077l23.055-9.799v7.282l-15.424 5.542zm384.401 18.661h-5.783l14.298-42.328h5.784l-14.299 42.328zm33.31-17.778v-.16l-15.664-5.515v-7.202l23.322 9.799v6.077l-23.322 9.826v-7.229l15.664-5.596z" fill="#e9d9ff"/>
    </g>
  </g>
</svg>
